<svg width="25" height="25" viewBox="0 0 25 25" fill="none" xmlns="http://www.w3.org/2000/svg">
<g clip-path="url(#clip0_3_173)">
<path d="M5.68164 13.6364V18.1818C5.68164 18.8094 6.19043 19.3182 6.818 19.3182H11.3635C11.6648 19.3182 11.9538 19.1984 12.1669 18.9853L24.6669 6.4853C25.1107 6.04152 25.1107 5.32205 24.6669 4.87826L20.1214 0.332803C19.9085 0.119773 19.6194 0 19.318 0C19.0166 0 18.7275 0.119773 18.5145 0.332879L6.01452 12.8329C5.80134 13.0459 5.68164 13.335 5.68164 13.6364ZM7.95437 14.107L19.318 2.74341L22.2564 5.68182L10.8928 17.0455H7.95437V14.107Z" fill="#4D3D3D"/>
<path d="M23.8636 11.3637C23.2361 11.3637 22.7273 11.8725 22.7273 12.5001V22.7273H2.27273V2.27273H12.5C13.1276 2.27273 13.6364 1.76394 13.6364 1.13636C13.6364 0.508788 13.1276 0 12.5 0H1.13636C0.508788 0 0 0.508788 0 1.13636V23.8636C0 24.4912 0.508788 25 1.13636 25H23.8636C24.4912 25 25 24.4912 25 23.8636V12.5001C25 11.8724 24.4912 11.3637 23.8636 11.3637Z" fill="#4D3D3D"/>
</g>
<defs>
<clipPath id="clip0_3_173">
<rect width="25" height="25" fill="white"/>
</clipPath>
</defs>
</svg>
