<svg width="26" height="26" viewBox="0 0 26 26" fill="none" xmlns="http://www.w3.org/2000/svg">
<path d="M25.9641 11.526C26.0118 11.4107 26.0118 11.2807 25.9641 11.1649C25.94 11.1067 25.905 11.0543 25.8615 11.0103L20.1893 5.33851C20.0044 5.15367 19.7057 5.15367 19.5208 5.33851C19.336 5.52335 19.336 5.82211 19.5208 6.00695L24.3866 10.8727H17.0187V0.472727C17.0187 0.211309 16.8074 0 16.5459 0H0.473216C0.458088 0 0.444852 0.00709091 0.430197 0.00850909C0.403725 0.0108727 0.380561 0.0170182 0.355506 0.0236364C0.31107 0.0354545 0.271361 0.0515273 0.23307 0.0746909C0.220779 0.0822546 0.205652 0.0822545 0.194306 0.0907636C0.179652 0.101636 0.168306 0.115345 0.15507 0.127164C0.147034 0.134727 0.138525 0.141345 0.130961 0.149382C0.0950337 0.188145 0.0657246 0.231164 0.0439792 0.278436C0.0397246 0.287891 0.037361 0.297345 0.0335792 0.3068C0.0137246 0.359745 0.000488281 0.415055 0.000488281 0.472727V22.2182C0.000488281 22.2773 0.0141974 22.3331 0.0345246 22.386C0.0411428 22.4035 0.0510701 22.4181 0.0595792 22.4347C0.0770701 22.4683 0.0969246 22.499 0.121979 22.5273C0.135688 22.5425 0.149397 22.5562 0.164525 22.5699C0.191943 22.594 0.22267 22.6139 0.255761 22.6313C0.273252 22.6408 0.289325 22.6507 0.308234 22.6578C0.31627 22.6607 0.322416 22.6663 0.330452 22.6692L10.7305 25.9783C10.7768 25.9924 10.825 26 10.8732 26C10.9725 26 11.0703 25.9688 11.1521 25.9092C11.2741 25.8204 11.3459 25.6785 11.3459 25.5273V22.6909H16.5459C16.8074 22.6909 17.0187 22.4796 17.0187 22.2182V11.8182H24.3866L19.5208 16.684C19.336 16.8688 19.336 17.1676 19.5208 17.3524C19.613 17.4446 19.734 17.4909 19.855 17.4909C19.9761 17.4909 20.0971 17.4446 20.1893 17.3524L25.8615 11.6801C25.905 11.6367 25.94 11.5842 25.9641 11.526ZM10.4005 24.8811L0.945943 21.8726V1.11895L10.4005 4.12738V24.8811ZM16.0732 21.7455H11.3459V3.78182C11.3459 3.57571 11.2126 3.39371 11.0165 3.33131L3.51805 0.945455H16.0732V21.7455Z" fill="#4D3D3D"/>
<path d="M9.63021 14.6881L7.26658 13.7427C7.02596 13.6458 6.74894 13.763 6.65203 14.0064C6.55512 14.249 6.6733 14.5241 6.91581 14.621L9.27945 15.5665C9.33665 15.5896 9.39621 15.6 9.45483 15.6C9.64203 15.6 9.81978 15.488 9.89399 15.3027C9.99043 15.0602 9.87225 14.785 9.63021 14.6881Z" fill="#4D3D3D"/>
</svg>
