<svg width="149" height="70" viewBox="0 0 149 70" fill="none" xmlns="http://www.w3.org/2000/svg">
<g clip-path="url(#clip0_2_104)">
<path d="M24.3489 33.1035L27.2251 38.7123C27.3453 38.9466 27.5674 39.091 27.8077 39.091C28.048 39.091 28.2701 38.9466 28.3903 38.7123L31.2667 33.1035C32.3228 34.3251 33.7974 35.0861 35.4277 35.0861C38.6313 35.0861 41.2377 32.152 41.2377 28.5455C41.2377 24.9389 38.6313 22.0046 35.4277 22.0046C32.2241 22.0046 29.6179 24.9388 29.6179 28.5455C29.6179 29.733 29.9019 30.8465 30.3952 31.8076H25.2202C25.7137 30.8465 25.9977 29.733 25.9977 28.5455C25.9977 24.9389 23.3913 22.0046 20.1877 22.0046C16.9841 22.0046 14.3777 24.9388 14.3777 28.5455C14.3777 32.152 16.9841 35.0861 20.1877 35.0861C21.818 35.0861 23.2927 34.3251 24.3489 33.1035ZM35.4277 23.5194C37.8894 23.5194 39.8922 25.7741 39.8922 28.5456C39.8922 31.317 37.8894 33.5716 35.4277 33.5716C32.966 33.5716 30.9633 31.317 30.9633 28.5456C30.9633 25.774 32.9661 23.5194 35.4277 23.5194ZM29.601 33.3222L27.8077 36.819L26.0145 33.3222H29.601ZM15.7232 28.5455C15.7232 25.774 17.726 23.5192 20.1877 23.5192C22.6495 23.5192 24.6523 25.774 24.6523 28.5455C24.6523 31.3168 22.6495 33.5714 20.1877 33.5714C17.726 33.5714 15.7232 31.3168 15.7232 28.5455Z" fill="#4D3D3D"/>
<path d="M22.4989 28.5455C22.4989 27.1108 21.4621 25.9436 20.1877 25.9436C18.9133 25.9436 17.8766 27.1108 17.8766 28.5455C17.8766 29.98 18.9134 31.1471 20.1877 31.1471C21.4621 31.1471 22.4989 29.98 22.4989 28.5455ZM19.2221 28.5455C19.2221 27.946 19.6553 27.4583 20.1877 27.4583C20.7202 27.4583 21.1534 27.946 21.1534 28.5455C21.1534 29.1448 20.7202 29.6324 20.1877 29.6324C19.6552 29.6324 19.2221 29.1448 19.2221 28.5455Z" fill="#4D3D3D"/>
<path d="M35.4277 31.1471C36.7021 31.1471 37.7389 29.98 37.7389 28.5455C37.7389 27.1108 36.7021 25.9436 35.4277 25.9436C34.1533 25.9436 33.1166 27.1108 33.1166 28.5455C33.1166 29.98 34.1534 31.1471 35.4277 31.1471ZM35.4277 27.4583C35.9602 27.4583 36.3934 27.946 36.3934 28.5455C36.3934 29.1448 35.9602 29.6324 35.4277 29.6324C34.8952 29.6324 34.4621 29.1448 34.4621 28.5455C34.4621 27.946 34.8953 27.4583 35.4277 27.4583Z" fill="#4D3D3D"/>
<path d="M31.3858 52.207C33.5167 52.207 35.2859 50.4323 35.5896 48.1268C37.6374 47.7848 39.2139 45.7933 39.2139 43.3944C39.2139 42.9761 38.9127 42.6371 38.5412 42.6371C38.1697 42.6371 37.8685 42.9761 37.8685 43.3944C37.8685 45.1975 36.5651 46.6646 34.9631 46.6646C33.3614 46.6646 32.0582 45.1976 32.0582 43.3944C32.0582 42.9761 31.757 42.6371 31.3855 42.6371C31.014 42.6371 30.7128 42.9761 30.7128 43.3944C30.7128 45.1975 29.4095 46.6646 27.8075 46.6646C26.2057 46.6646 24.9025 45.1976 24.9025 43.3944C24.9025 42.9761 24.6013 42.6371 24.2298 42.6371C23.8583 42.6371 23.5571 42.9761 23.5571 43.3944C23.5571 45.1975 22.2538 46.6646 20.6518 46.6646C19.05 46.6646 17.7469 45.1976 17.7469 43.3944C17.7469 42.9761 17.4456 42.6371 17.0741 42.6371C16.7027 42.6371 16.4014 42.9761 16.4014 43.3944C16.4014 45.7933 17.9779 47.7851 20.0258 48.1268C20.3295 50.4323 22.0988 52.207 24.2298 52.207C25.7305 52.207 27.0512 51.3262 27.8077 50.0004C28.5644 51.3262 29.8851 52.207 31.3858 52.207ZM31.3856 45.9728C32.0153 47.0761 33.0358 47.8701 34.2257 48.1056C33.9456 49.5816 32.7792 50.6923 31.3858 50.6923C29.9922 50.6923 28.8257 49.5815 28.5456 48.1056C29.7355 47.8701 30.756 47.0761 31.3856 45.9728ZM24.23 50.6923C22.8365 50.6923 21.67 49.5815 21.3899 48.1056C22.5798 47.8701 23.6003 47.0761 24.23 45.9728C24.8596 47.0761 25.8801 47.8702 27.0702 48.1056C26.7899 49.5816 25.6234 50.6923 24.23 50.6923Z" fill="#4D3D3D"/>
<path d="M59.9581 51.6319C59.8604 51.3347 59.6087 51.1375 59.3273 51.1375H53.0858C52.9385 51.1375 52.7953 51.1919 52.6781 51.2923L44.8298 58.0242H35.3632C38.3202 56.5998 40.5122 54.1538 41.9929 50.5992C43.5474 50.3738 45.2988 48.9732 46.7656 46.7497C48.4349 44.2195 49.4748 40.9961 49.6189 37.9061C49.7774 34.5066 49.2404 32.1255 47.9773 30.6269C47.1047 29.5915 45.9223 29.0229 44.3765 28.8985V7.13444C44.3765 6.81106 44.1941 6.52327 43.9223 6.41816C43.6507 6.31289 43.3496 6.41391 43.1731 6.66883L37.0285 15.5471H18.5872L12.4425 6.66898C12.2658 6.41392 11.9647 6.31289 11.6932 6.41831C11.4214 6.52327 11.239 6.81121 11.239 7.13459V28.8988C9.69335 29.0232 8.51098 29.5918 7.63834 30.6271C6.37511 32.1258 5.83815 34.5067 5.99651 37.9064C6.1406 40.9969 7.17874 44.2202 8.84438 46.7495C10.3051 48.9677 12.0499 50.3662 13.601 50.5966C14.1074 51.8224 14.6958 52.9136 15.3685 53.8725C16.6546 55.7057 18.2633 57.0848 20.2181 58.0243H3.82054C3.61011 58.0243 3.41166 58.1352 3.28452 58.3239L0.136749 62.9968C-0.0177062 63.226 -0.043404 63.5337 0.070285 63.7914C0.183974 64.0489 0.417406 64.2117 0.672769 64.2117H47.5726L53.2288 68.9797C53.3464 69.0788 53.4881 69.1309 53.632 69.1309C53.6837 69.1309 53.7356 69.1242 53.7869 69.1106C53.9809 69.0588 54.1446 68.9129 54.2337 68.7122L56.4183 63.7931C56.5636 63.4659 56.4805 63.0687 56.2208 62.849L52.385 59.6031L59.7653 52.4693C59.979 52.263 60.0558 51.9289 59.9581 51.6319ZM16.4245 52.9336C13.8408 49.2508 12.5848 43.3643 12.5848 34.9375C12.5848 34.5191 12.2836 34.1802 11.9121 34.1802C11.5406 34.1802 11.2394 34.5191 11.2394 34.9375C11.2394 40.6247 11.8069 45.2253 12.9611 48.8379C10.5781 47.6971 7.59084 43.1996 7.34032 37.8268C7.20417 34.9057 7.63282 32.8341 8.61445 31.6696C9.34192 30.8066 10.4206 30.387 11.9121 30.387C12.2836 30.387 12.5848 30.048 12.5848 29.6297C12.5848 29.6286 12.5845 29.6277 12.5845 29.6266V9.33857L17.728 16.7702C17.8555 16.9544 18.0513 17.0621 18.2586 17.0621H37.3573C37.5648 17.0621 37.7604 16.9544 37.8879 16.7702L43.0313 9.33872V29.6291C43.0313 29.6294 43.0313 29.6295 43.0313 29.6298C43.0313 30.0482 43.3325 30.3871 43.704 30.3871C45.1954 30.3871 46.274 30.8067 47.0015 31.6698C47.9831 32.8342 48.4116 34.9058 48.2755 37.827C48.0247 43.2064 45.0265 47.7073 42.6385 48.8408C43.8117 45.2016 44.3764 40.5903 44.3764 34.9376C44.3764 34.5193 44.0752 34.1803 43.7037 34.1803C43.3322 34.1803 43.031 34.5193 43.031 34.9376C43.031 50.9744 38.5598 57.8992 28.0972 58.0243H27.5C22.3405 57.9624 18.8152 56.3411 16.4245 52.9336ZM2.02722 62.6972L4.15461 59.5388H21.7598V61.2503C21.7598 61.7758 21.8834 62.2689 22.0976 62.6972H2.02722ZM25.6764 61.2503C25.6764 62.0482 25.0997 62.6972 24.3908 62.6972C23.6819 62.6972 23.1053 62.0482 23.1053 61.2503V59.5388H25.6763V61.2503H25.6764ZM26.6841 62.6972C26.8983 62.2689 27.0218 61.7758 27.0218 61.2503V59.5388H28.5938V61.2503C28.5938 61.7758 28.7173 62.2689 28.9315 62.6972H26.6841ZM32.5101 61.2503C32.5101 62.0482 31.9333 62.6972 31.2244 62.6972C30.5156 62.6972 29.9391 62.0482 29.9391 61.2503V59.5388H32.51V61.2503H32.5101ZM50.8736 59.0678C50.719 59.2173 50.6329 59.4377 50.6395 59.667C50.6461 59.8965 50.7447 60.11 50.9077 60.2478L54.9643 63.6805L53.3907 67.2239L48.1999 62.8484C48.0835 62.7502 47.9419 62.6972 47.7966 62.6972H33.518C33.732 62.2689 33.8557 61.7758 33.8557 61.2503V59.5388H45.0569C45.2043 59.5388 45.3474 59.4845 45.4646 59.384L53.313 52.6523H57.5112L50.8736 59.0678Z" fill="#4D3D3D"/>
<path d="M46.9456 5.73887C41.7515 2.10364 34.8456 0.101562 27.5001 0.101562C18.2264 0.101562 9.63806 3.34066 4.52635 8.76625C4.19317 9.11975 4.33264 9.59541 4.83783 9.82852C5.34291 10.0617 6.02252 9.96409 6.35559 9.61052C11.0607 4.61664 18.9652 1.63519 27.5001 1.63519C41.0882 1.63519 52.2078 9.16899 52.7837 18.5818H51.5348C51.2127 17.4599 49.7941 16.6121 48.0977 16.6121C46.1645 16.6121 44.5918 17.7129 44.5918 19.0659V29.0246C44.5918 30.3777 46.1645 31.4784 48.0977 31.4784C49.7942 31.4784 51.2127 30.6307 51.5348 29.5088H53.9045C54.5096 29.5088 55.0001 29.1655 55.0001 28.742V19.3485C55.0001 14.2076 52.1397 9.37418 46.9456 5.73887ZM49.4125 29.0247C49.4125 29.5321 48.8227 29.9449 48.0977 29.9449C47.3728 29.9449 46.783 29.5321 46.783 29.0247V19.066C46.783 18.5586 47.3728 18.1458 48.0977 18.1458C48.8227 18.1458 49.4125 18.5586 49.4125 19.066V29.0247ZM52.8089 27.9753H51.6037V20.1154H52.8089V27.9753Z" fill="#4D3D3D"/>
<path d="M2.27321 13.8207C2.39559 13.8514 2.5206 13.8661 2.64364 13.8661C3.09284 13.8661 3.5141 13.6712 3.67483 13.3583C3.92967 12.8618 4.22012 12.3674 4.53818 11.8888C4.79335 11.5048 4.55527 11.0487 4.00658 10.8702C3.45812 10.6916 2.80634 10.8581 2.55117 11.2422C2.2055 11.7626 1.88974 12.3 1.61266 12.8398C1.408 13.2383 1.70371 13.6775 2.27321 13.8207Z" fill="#4D3D3D"/>
<path d="M6.90239 16.6122C5.20594 16.6122 3.78744 17.4599 3.46533 18.5819H2.21665C2.27735 17.5882 2.45396 16.6005 2.74781 15.6361C2.87402 15.222 2.49658 14.8146 1.90473 14.7262C1.31255 14.6378 0.730886 14.9021 0.604671 15.3163C0.203456 16.6333 0 17.99 0 19.3486V28.7421C0 29.1656 0.490508 29.5089 1.09562 29.5089H3.46533C3.78744 30.6308 5.20605 31.4785 6.90239 31.4785C8.83561 31.4785 10.4084 30.3778 10.4084 29.0247V19.066C10.4084 17.713 8.83561 16.6122 6.90239 16.6122ZM3.39641 27.9753H2.19123V20.1154H3.39641V27.9753ZM8.21713 29.0247C8.21713 29.5321 7.62736 29.9449 6.90239 29.9449C6.17742 29.9449 5.58765 29.5321 5.58765 29.0247V19.066C5.58765 18.5586 6.17742 18.1458 6.90239 18.1458C7.62736 18.1458 8.21713 18.5586 8.21713 19.066V29.0247Z" fill="#4D3D3D"/>
</g>
<path d="M68.273 8H71.573V16.85L75.773 8H79.073L75.143 15.71L79.133 29H75.683L72.893 19.64L71.573 22.31V29H68.273V8ZM84.9961 29.3C83.3761 29.3 82.1361 28.84 81.2761 27.92C80.4161 27 79.9861 25.7 79.9861 24.02V12.98C79.9861 11.3 80.4161 10 81.2761 9.08C82.1361 8.16 83.3761 7.7 84.9961 7.7C86.6161 7.7 87.8561 8.16 88.7161 9.08C89.5761 10 90.0061 11.3 90.0061 12.98V24.02C90.0061 25.7 89.5761 27 88.7161 27.92C87.8561 28.84 86.6161 29.3 84.9961 29.3ZM84.9961 26.3C86.1361 26.3 86.7061 25.61 86.7061 24.23V12.77C86.7061 11.39 86.1361 10.7 84.9961 10.7C83.8561 10.7 83.2861 11.39 83.2861 12.77V24.23C83.2861 25.61 83.8561 26.3 84.9961 26.3ZM96.8878 29.3C95.3078 29.3 94.0978 28.85 93.2578 27.95C92.4378 27.05 92.0278 25.78 92.0278 24.14V12.86C92.0278 11.22 92.4378 9.95 93.2578 9.05C94.0978 8.15 95.3078 7.7 96.8878 7.7C98.4678 7.7 99.6678 8.15 100.488 9.05C101.328 9.95 101.748 11.22 101.748 12.86V15.08H98.6278V12.65C98.6278 11.35 98.0778 10.7 96.9778 10.7C95.8778 10.7 95.3278 11.35 95.3278 12.65V24.38C95.3278 25.66 95.8778 26.3 96.9778 26.3C98.0778 26.3 98.6278 25.66 98.6278 24.38V21.17H101.748V24.14C101.748 25.78 101.328 27.05 100.488 27.95C99.6678 28.85 98.4678 29.3 96.8878 29.3ZM108.551 29.3C106.931 29.3 105.691 28.84 104.831 27.92C103.971 27 103.541 25.7 103.541 24.02V12.98C103.541 11.3 103.971 10 104.831 9.08C105.691 8.16 106.931 7.7 108.551 7.7C110.171 7.7 111.411 8.16 112.271 9.08C113.131 10 113.561 11.3 113.561 12.98V24.02C113.561 25.7 113.131 27 112.271 27.92C111.411 28.84 110.171 29.3 108.551 29.3ZM108.551 26.3C109.691 26.3 110.261 25.61 110.261 24.23V12.77C110.261 11.39 109.691 10.7 108.551 10.7C107.411 10.7 106.841 11.39 106.841 12.77V24.23C106.841 25.61 107.411 26.3 108.551 26.3ZM115.793 8H119.933L123.143 20.57H123.203V8H126.143V29H122.753L118.793 13.67H118.733V29H115.793V8ZM131.175 11H127.725V8H137.925V11H134.475V29H131.175V11ZM140.696 8H145.166L148.586 29H145.286L144.686 24.83V24.89H140.936L140.336 29H137.276L140.696 8ZM144.296 22.04L142.826 11.66H142.766L141.326 22.04H144.296Z" fill="#4D3D3D"/>
<path d="M68.2163 35.6H71.4943L74.0023 51H71.5823L71.1423 47.942V47.986H68.3923L67.9523 51H65.7083L68.2163 35.6ZM70.8563 45.896L69.7783 38.284H69.7343L68.6783 45.896H70.8563ZM75.1764 35.6H78.7624C80.0091 35.6 80.9184 35.8933 81.4904 36.48C82.0624 37.052 82.3484 37.9393 82.3484 39.142V40.088C82.3484 41.6867 81.8204 42.6987 80.7644 43.124V43.168C81.3511 43.344 81.7617 43.7033 81.9964 44.246C82.2457 44.7887 82.3704 45.5147 82.3704 46.424V49.13C82.3704 49.57 82.3851 49.9293 82.4144 50.208C82.4437 50.472 82.5171 50.736 82.6344 51H80.1704C80.0824 50.7507 80.0237 50.516 79.9944 50.296C79.9651 50.076 79.9504 49.68 79.9504 49.108V46.292C79.9504 45.588 79.8331 45.0967 79.5984 44.818C79.3784 44.5393 78.9897 44.4 78.4324 44.4H77.5964V51H75.1764V35.6ZM78.4764 42.2C78.9604 42.2 79.3197 42.0753 79.5544 41.826C79.8037 41.5767 79.9284 41.1587 79.9284 40.572V39.384C79.9284 38.8267 79.8257 38.4233 79.6204 38.174C79.4297 37.9247 79.1217 37.8 78.6964 37.8H77.5964V42.2H78.4764ZM85.8985 37.8H83.3685V35.6H90.8485V37.8H88.3185V51H85.8985V37.8ZM92.0202 35.6H94.4402V51H92.0202V35.6ZM99.6626 51.22C98.5039 51.22 97.6166 50.89 97.0006 50.23C96.3993 49.57 96.0986 48.6387 96.0986 47.436V39.164C96.0986 37.9613 96.3993 37.03 97.0006 36.37C97.6166 35.71 98.5039 35.38 99.6626 35.38C100.821 35.38 101.701 35.71 102.303 36.37C102.919 37.03 103.227 37.9613 103.227 39.164V40.792H100.939V39.01C100.939 38.0567 100.535 37.58 99.7286 37.58C98.9219 37.58 98.5186 38.0567 98.5186 39.01V47.612C98.5186 48.5507 98.9219 49.02 99.7286 49.02C100.535 49.02 100.939 48.5507 100.939 47.612V45.258H103.227V47.436C103.227 48.6387 102.919 49.57 102.303 50.23C101.701 50.89 100.821 51.22 99.6626 51.22ZM104.674 35.6H107.094V48.8H111.076V51H104.674V35.6ZM112.237 35.6H118.837V37.8H114.657V41.87H117.979V44.07H114.657V48.8H118.837V51H112.237V35.6ZM123.418 51.22C122.245 51.22 121.357 50.89 120.756 50.23C120.155 49.5553 119.854 48.5947 119.854 47.348V46.468H122.142V47.524C122.142 48.5213 122.56 49.02 123.396 49.02C123.807 49.02 124.115 48.9027 124.32 48.668C124.54 48.4187 124.65 48.0227 124.65 47.48C124.65 46.8347 124.503 46.27 124.21 45.786C123.917 45.2873 123.374 44.6933 122.582 44.004C121.585 43.124 120.888 42.332 120.492 41.628C120.096 40.9093 119.898 40.1027 119.898 39.208C119.898 37.9907 120.206 37.052 120.822 36.392C121.438 35.7173 122.333 35.38 123.506 35.38C124.665 35.38 125.537 35.7173 126.124 36.392C126.725 37.052 127.026 38.0053 127.026 39.252V39.89H124.738V39.098C124.738 38.57 124.635 38.1887 124.43 37.954C124.225 37.7047 123.924 37.58 123.528 37.58C122.721 37.58 122.318 38.0713 122.318 39.054C122.318 39.6113 122.465 40.132 122.758 40.616C123.066 41.1 123.616 41.6867 124.408 42.376C125.42 43.256 126.117 44.0553 126.498 44.774C126.879 45.4927 127.07 46.336 127.07 47.304C127.07 48.5653 126.755 49.5333 126.124 50.208C125.508 50.8827 124.606 51.22 123.418 51.22Z" fill="#4D3D3D"/>
<defs>
<clipPath id="clip0_2_104">
<rect width="60" height="70" fill="white"/>
</clipPath>
</defs>
</svg>
