<svg width="26" height="26" viewBox="0 0 26 26" fill="none" xmlns="http://www.w3.org/2000/svg">
<path d="M12.9974 13.8859C16.8117 13.8859 19.9682 10.8461 19.9682 6.97342C19.9682 3.10074 16.8117 0.00259399 12.9974 0.00259399C9.18305 0.00259399 6.02655 3.04238 6.02655 6.91506C6.02655 10.7877 9.18305 13.8859 12.9974 13.8859ZM12.9974 2.16175C15.6499 2.16175 17.809 4.3209 17.809 6.92037C17.809 9.51983 15.6499 11.6737 12.9974 11.6737C10.3449 11.6737 8.1857 9.51453 8.1857 6.91506C8.1857 4.31559 10.3449 2.16175 12.9974 2.16175Z" fill="#4D3D3D"/>
<path d="M17.6976 14.5491C17.2573 14.4377 16.8117 14.5491 16.5358 14.8833L12.9973 18.9204L9.45889 14.8833C9.18302 14.5491 8.68435 14.443 8.29708 14.5491C3.2626 16.2095 0 20.2997 0 24.8886C0 25.4987 0.498674 25.9973 1.10875 25.9973H24.8912C25.5013 25.9973 26 25.4987 26 24.8886C25.9947 20.2997 22.7321 16.2095 17.6976 14.5491ZM2.26525 23.8382C2.71088 20.7984 4.92308 18.1989 8.35013 16.8727L12.2228 21.2971C12.6101 21.7958 13.4377 21.7958 13.8249 21.2971L17.6976 16.8727C21.0716 18.1989 23.3422 20.8515 23.7825 23.8382H2.26525Z" fill="#4D3D3D"/>
</svg>
