<svg width="26" height="26" viewBox="0 0 26 26" fill="none" xmlns="http://www.w3.org/2000/svg">
<path d="M19.7634 15.4053C19.387 15.4053 19.02 15.446 18.6659 15.5227C17.7778 14.0985 16.5414 12.9338 15.0835 12.1408C16.1176 10.8026 16.6849 9.0774 16.6849 7.25344C16.6849 5.34325 16.0631 3.54093 14.934 2.17862C13.7697 0.773703 12.2091 0 10.5398 0C8.87043 0 7.30989 0.773703 6.14557 2.17862C5.0165 3.54098 4.39468 5.34325 4.39468 7.25344C4.39468 9.07735 4.96193 10.8025 5.99603 12.1407C3.28799 13.6097 1.41707 16.3123 1.01533 19.4393C0.947157 19.9702 1.10845 20.5053 1.45808 20.9077C1.80717 21.3091 2.31092 21.5394 2.84011 21.5394H14.5923C14.99 24.0641 17.1572 26 19.7634 26C22.6508 26 25 23.6236 25 20.7026C25 17.7816 22.6508 15.4053 19.7634 15.4053ZM10.5398 1.67334C13.0161 1.67334 15.0307 4.17655 15.0307 7.25339C15.0307 10.5896 12.7963 12.8333 10.5332 12.8333C8.14425 12.8293 6.04889 10.4231 6.04889 7.25339C6.04884 4.17655 8.06343 1.67334 10.5398 1.67334ZM14.5922 19.866H2.84016C2.7863 19.8659 2.7353 19.8428 2.70031 19.8026C2.66507 19.7621 2.64886 19.7083 2.65568 19.655C3.01059 16.8921 4.75159 14.5284 7.24303 13.3811C8.21212 14.11 9.3431 14.5046 10.5307 14.5067C10.5337 14.5067 10.5367 14.5069 10.5398 14.5069C10.5428 14.5069 10.5458 14.5067 10.5488 14.5067C11.726 14.5046 12.8587 14.1166 13.8363 13.3812C15.149 13.9869 16.2744 14.9445 17.0918 16.1465C15.7871 16.9313 14.841 18.2869 14.5922 19.866ZM19.7634 24.3267C17.788 24.3267 16.1809 22.7009 16.1809 20.7027C16.1809 18.6968 17.7945 17.0786 19.7634 17.0786C21.7387 17.0786 23.3458 18.7044 23.3458 20.7027C23.3458 22.7009 21.7387 24.3267 19.7634 24.3267Z" fill="#4D3D3D"/>
<path d="M21.6975 19.8659H20.6785V18.8469C20.6785 18.3848 20.3039 18.0102 19.8418 18.0102C19.3798 18.0102 19.0052 18.3848 19.0052 18.8469V19.8659H17.9861C17.524 19.8659 17.1494 20.2405 17.1494 20.7026C17.1494 21.1647 17.524 21.5393 17.9861 21.5393H19.0052V22.5583C19.0052 23.0204 19.3798 23.395 19.8418 23.395C20.3039 23.395 20.6785 23.0204 20.6785 22.5583V21.5393H21.6975C22.1596 21.5393 22.5342 21.1647 22.5342 20.7026C22.5342 20.2405 22.1596 19.8659 21.6975 19.8659Z" fill="#4D3D3D"/>
</svg>
